<!-- Generated by IcoMoon.io -->
<svg version="1.1" xmlns="http://www.w3.org/2000/svg" width="79" height="76" viewBox="0 0 33 32">
<title>Shape-3</title>
<path fill="#262626" d="M32.388 32h-31.513c-0.484-0.002-0.876-0.395-0.876-0.88 0-0.001 0-0.003 0-0.004v0-25.651c0-0.001 0-0.003 0-0.004 0-0.485 0.392-0.878 0.876-0.88h31.513c0.484 0.003 0.875 0.396 0.875 0.88 0 0.002 0 0.003 0 0.004v-0 25.651c0 0.001 0 0.003 0 0.004 0 0.484-0.391 0.877-0.875 0.88h-0zM1.75 30.232h29.763v-23.882h-29.763v23.882zM32.388 6.349h-31.513c-0.484-0.002-0.876-0.395-0.876-0.88 0-0.001 0-0.003 0-0.004v0-4.585c0-0.001 0-0.003 0-0.004 0-0.485 0.392-0.878 0.876-0.88h31.513c0.484 0.003 0.875 0.396 0.875 0.88 0 0.001 0 0.003 0 0.004v-0 4.585c0 0.001 0 0.003 0 0.004 0 0.484-0.391 0.877-0.875 0.88h-0zM1.75 4.581h29.763v-2.817h-29.763v2.817zM3.866 2.556h-0c-0.339 0.002-0.612 0.277-0.612 0.616 0 0.001 0 0.002 0 0.003v0c0 0.342 0.277 0.619 0.619 0.619s0.619-0.277 0.619-0.619c0-0.342-0.277-0.619-0.619-0.619-0.002 0-0.004 0-0.006 0zM5.697 2.556h-0c-0.338 0.002-0.612 0.277-0.612 0.616 0 0.001 0 0.002 0 0.003v0c0.001 0.34 0.277 0.615 0.617 0.615s0.617-0.276 0.617-0.617-0.276-0.617-0.617-0.617c-0.002 0-0.004 0-0.005 0zM7.529 2.556h-0c-0.338 0.002-0.612 0.277-0.612 0.616 0 0.001 0 0.002 0 0.003v0c0 0.342 0.277 0.619 0.619 0.619s0.619-0.277 0.619-0.619c0-0.342-0.277-0.619-0.619-0.619-0.002 0-0.005 0-0.007 0zM12.229 20.707v0c0 0 0 0 0 0 0.212 0 0.404-0.087 0.541-0.227l-0 0c0.139-0.141 0.224-0.334 0.224-0.547s-0.086-0.407-0.224-0.547l-1.842-1.857 1.837-1.857c0.139-0.141 0.225-0.334 0.225-0.547s-0.086-0.407-0.225-0.547v0c-0.139-0.139-0.33-0.224-0.542-0.224s-0.403 0.086-0.542 0.224l-2.378 2.404c-0.139 0.141-0.225 0.334-0.225 0.547s0.086 0.407 0.225 0.547l2.383 2.404c0.138 0.14 0.329 0.227 0.541 0.227 0 0 0 0 0 0zM21.037 20.707v0c0.212-0 0.403-0.087 0.541-0.227l2.379-2.404c0.139-0.14 0.225-0.333 0.225-0.545s-0.086-0.405-0.225-0.545l-2.383-2.408c-0.139-0.139-0.33-0.224-0.541-0.224s-0.403 0.086-0.541 0.224l0-0c-0.139 0.141-0.224 0.334-0.224 0.547s0.086 0.407 0.224 0.547l1.842 1.861-1.838 1.853c-0.139 0.141-0.225 0.334-0.225 0.547s0.086 0.407 0.225 0.547l0 0c0.138 0.14 0.329 0.227 0.541 0.227 0 0 0 0 0 0zM15.534 22.493h0c0.356-0.001 0.656-0.245 0.741-0.581l1.946-7.691c0.017-0.063 0.026-0.13 0.026-0.199 0-0.358-0.243-0.659-0.578-0.75l0.005 0.001c-0.062-0.016-0.126-0.025-0.193-0.025-0.358 0-0.659 0.246-0.744 0.583l-1.945 7.691c-0.017 0.063-0.025 0.129-0.025 0.197 0 0.357 0.242 0.657 0.577 0.747l-0.005-0.001c0.062 0.017 0.128 0.026 0.196 0.026z"></path>
</svg>
